<svg width="115" height="130" viewBox="0 0 115 130" fill="none" xmlns="http://www.w3.org/2000/svg">
<path d="M57.777 122.815C61.2402 111.226 84.306 73.5973 83.6252 72.0433C82.9444 70.4893 85.8452 71.9249 76.9652 67.0631C68.0852 62.2013 69.21 53.4989 69.1286 51.0273H46.1072C46.0332 53.4989 47.2172 62.1939 38.3002 67.0631C29.3832 71.9323 32.8538 72.4133 32.1212 74.0117C31.3886 75.6101 53.9882 111.241 57.4514 122.815V124.036C57.482 123.819 57.5341 123.606 57.6068 123.399C57.666 123.621 57.7326 123.843 57.7696 124.036L57.777 122.815Z" fill="#D59A80"/>
<path d="M69.58 54.0094C69.2692 54.298 68.951 54.594 68.655 54.927C67.657 55.8125 66.5766 56.6005 65.4286 57.2802C62.4244 59.0871 58.8764 59.7689 55.4164 59.2042C54.373 59.0396 53.3507 58.7617 52.3676 58.3754C51.264 57.9387 50.2078 57.3907 49.2152 56.74C48.0293 55.9327 46.9196 55.0187 45.9 54.0094C41.5858 49.8432 41.6228 39.3204 40.5794 40.0604C38.204 41.6662 36.6796 36.9006 36.3836 34.0738C36.0876 31.247 37.39 30.1 38.5814 31.247C39.7728 32.394 39.7802 31.1138 40.128 29.5598C40.2283 29.0603 40.3542 28.5663 40.5054 28.0798C40.7274 27.3398 40.9716 26.5998 41.2454 25.8598C41.6006 24.9496 41.9854 24.0616 42.4516 23.1884C42.9616 22.209 43.5402 21.2668 44.1832 20.369C44.872 19.3982 45.6472 18.4917 46.4994 17.6606C47.3975 16.7945 48.3905 16.0324 49.4594 15.3888C50.6162 14.6903 51.8603 14.1479 53.1594 13.7756C54.68 13.3551 56.2512 13.146 57.8288 13.154C59.3565 13.1587 60.8761 13.3779 62.3428 13.8052C63.6429 14.1812 64.8872 14.7287 66.0428 15.4332C67.1135 16.0886 68.1065 16.8632 69.0028 17.742C69.848 18.5735 70.6158 19.48 71.2968 20.4504C71.9326 21.346 72.5038 22.2857 73.0062 23.2624C73.4569 24.1266 73.8571 25.0161 74.205 25.9264C74.4862 26.6664 74.7452 27.4064 74.945 28.1464C75.093 28.6274 75.2262 29.1158 75.3298 29.6264C75.6554 31.173 75.6776 32.505 76.869 31.3136C78.0604 30.1222 79.3406 31.3136 79.0446 34.1404C78.7486 36.9672 77.202 41.7254 74.8488 40.1196C73.8498 39.35 73.8868 49.8728 69.58 54.0094Z" fill="#E0A484"/>
<path d="M46.64 20.3469C43.7466 18.8077 43.2656 24.1727 41.645 26.5333C40.0244 28.8939 41.2084 33.2821 40.239 32.4015C39.2696 31.5209 38.241 31.4839 37.908 30.8401C37.723 30.4849 34.2968 17.3943 38.5074 10.5271C39.8468 8.60308 41.6672 8.08509 42.1186 7.64109C42.57 7.19709 43.495 3.31949 52.005 1.32889C58.5984 -0.217714 70.1276 0.633285 76.129 10.2681C82.1304 19.9029 77.7274 29.8485 77.5498 30.9067C77.3722 31.9649 75.7664 31.5283 75.1374 32.5569C74.5084 33.5855 74.7896 28.9383 73.8942 27.6137C72.9988 26.2891 72.5104 23.9951 70.6234 23.6473C68.7364 23.2995 55.0094 24.7869 46.64 20.3469Z" fill="#373737"/>
<path opacity="0.6" d="M57.777 41.2002C57.777 41.2002 57.8806 41.437 58.0434 41.7404L58.3024 42.251L58.4282 42.5248C58.4282 42.621 58.517 42.7024 58.5392 42.7986C58.5692 42.8777 58.5915 42.9594 58.6058 43.0428C58.6132 43.1191 58.6132 43.1959 58.6058 43.2722C58.6206 43.3455 58.6206 43.4209 58.6058 43.4942C58.5944 43.5707 58.5666 43.6439 58.5244 43.7088L58.4134 43.9012L58.3024 44.0566L58.2062 44.2046H58.591C58.675 44.173 58.7546 44.1307 58.8278 44.0788C58.8791 44.0537 58.9264 44.0213 58.9684 43.9826C59.0135 43.9435 59.0533 43.8987 59.0868 43.8494C59.1787 43.7443 59.2469 43.6206 59.2866 43.4868C59.3014 43.416 59.3014 43.343 59.2866 43.2722C59.3014 43.1989 59.3014 43.1235 59.2866 43.0502C59.2807 42.9245 59.2583 42.8001 59.22 42.6802C59.1821 42.5477 59.1221 42.4226 59.0424 42.3102C58.9816 42.2 58.907 42.0981 58.8204 42.0068C58.679 41.8432 58.5145 41.7011 58.332 41.585C58.1738 41.4218 57.9853 41.2911 57.777 41.2002Z" fill="#DB9C94"/>
<path d="M56.667 189.074C27.733 189.074 23.6186 174.097 23.6186 174.097L25.9644 135.025L17.04 75.1218L39.61 66.301C39.61 66.301 57.4884 90.647 75.87 66.301L98.3808 75.0996L89.5008 134.988L90.4258 174.578C90.4258 174.578 87.6582 189.074 58.7538 189.074H56.667Z" fill="#364F6B"/>
<path d="M57.3108 81.5153C69.617 81.5153 76.795 72.9091 79.792 67.8327L75.8478 66.2935C57.4514 90.6395 39.5878 66.2935 39.5878 66.2935L35.392 67.9289C38.8108 72.5835 46.788 81.5153 57.3108 81.5153Z" fill="#F5F5F5"/>
<path d="M96.4272 88.3677H18.9862L21.998 108.666H93.408L96.4272 88.3677Z" fill="#FC5185"/>
<path d="M23.9886 122.097H91.4174L92.483 114.904H22.923L23.9886 122.097Z" fill="#F5F5F5"/>
<path d="M17.04 75.1069C17.04 75.1069 14.6424 76.3797 12.082 82.6179C9.52161 88.8561 3.45361 134.559 3.45361 134.559C3.45361 134.559 1.23361 136.608 2.84681 138.029C3.96421 139.013 1.77381 139.598 0.893214 140.249C0.0126139 140.9 1.72941 142.018 2.37321 142.654C3.01701 143.291 -0.268587 143.638 1.97361 146.199C4.21581 148.759 13.9764 170.619 22.2866 184.679C22.2866 184.679 29.4498 186.447 33.0462 180.061C33.0462 180.061 21.6354 143.283 20.1998 140.101L23.6186 119.64C23.6186 119.64 27.5776 91.7421 17.04 75.1069Z" fill="#364F6B"/>
<path opacity="0.3" d="M7.42001 106.875C5.31101 120.476 3.43881 134.573 3.43881 134.573C3.43881 134.573 1.21881 136.616 2.83201 138.044C3.94941 139.021 1.75901 139.613 0.878413 140.264C-0.00218701 140.915 1.71461 142.025 2.35841 142.661C3.00221 143.298 -0.283386 143.653 1.95881 146.206C4.20101 148.759 13.9616 170.626 22.2718 184.686C23.0303 184.849 23.805 184.923 24.5806 184.908C19.4894 177.73 5.89561 145 5.24441 140.005C4.96321 138.199 6.39141 119.64 7.42001 106.875Z" fill="black"/>
<path d="M98.3956 75.0994C98.3956 75.0994 100.704 76.3796 103.257 82.6178C105.81 88.856 111.893 134.558 111.893 134.558C111.893 134.558 114.113 136.608 112.5 138.029C111.383 139.013 113.573 139.598 114.446 140.249C115.319 140.9 113.617 142.018 112.966 142.654C112.315 143.29 115.608 143.638 113.373 146.199C111.138 148.759 101.326 170.619 93.0602 184.679C93.0602 184.679 85.897 186.447 82.308 180.061C82.308 180.061 93.7114 143.283 95.147 140.101L91.6616 119.64C91.6616 119.64 87.8432 91.7346 98.3956 75.0994Z" fill="#364F6B"/>
<path opacity="0.3" d="M107.912 106.875C110.014 120.476 111.893 134.573 111.893 134.573C111.893 134.573 114.113 136.616 112.5 138.044C111.383 139.021 113.573 139.613 114.446 140.264C115.319 140.915 113.617 142.025 112.966 142.661C112.315 143.298 115.608 143.653 113.373 146.206C111.138 148.759 101.326 170.626 93.0602 184.686C92.3017 184.849 91.527 184.923 90.7514 184.908C95.8426 177.73 109.436 145 110.088 140.005C110.398 138.199 108.933 119.64 107.912 106.875Z" fill="black"/>
</svg>
