<svg width="17" height="15" viewBox="0 0 17 15" fill="none" xmlns="http://www.w3.org/2000/svg">
<path d="M0.583374 6.01718L8.22533 10.0056C8.31014 10.0499 8.40438 10.073 8.50004 10.073C8.5957 10.073 8.68994 10.0499 8.77475 10.0056L16.4167 6.01797V12.0521C16.4168 12.7092 16.1653 13.3415 15.714 13.8192C15.2626 14.2969 14.6456 14.5838 13.9895 14.621L13.8438 14.625H3.15629C2.4991 14.625 1.8668 14.3736 1.38911 13.9222C0.911414 13.4709 0.62454 12.8539 0.587332 12.1977L0.583374 12.0521V6.01718ZM1.45421 4.46709L8.19683 0.458096C8.27523 0.411589 8.36328 0.383756 8.45416 0.376754C8.54505 0.369753 8.63632 0.38377 8.72092 0.417721L8.80325 0.458096L15.5459 4.46789C15.7319 4.57872 15.8934 4.72043 16.0248 4.8843L8.50004 8.81018L0.975249 4.88351C1.07421 4.7608 1.189 4.64997 1.31962 4.55576L1.45421 4.46709L8.19683 0.458096L1.45421 4.46789V4.46709Z" fill="white"/>
</svg>
