<svg width="12" height="15" viewBox="0 0 12 15" fill="none" xmlns="http://www.w3.org/2000/svg">
<path d="M5.99963 0.937256C4.54148 0.938884 3.14354 1.48265 2.11246 2.44928C1.08139 3.41592 0.501371 4.72648 0.499634 6.09351C0.499634 10.5054 5.49963 13.838 5.71251 13.9776C5.79671 14.0327 5.89693 14.0623 5.99963 14.0623C6.10234 14.0623 6.20256 14.0327 6.28676 13.9776C6.49963 13.838 11.4996 10.5054 11.4996 6.09351C11.4979 4.72648 10.9179 3.41592 9.8868 2.44928C8.85573 1.48265 7.45779 0.938884 5.99963 0.937256ZM6.00001 4.21868C6.39557 4.21868 6.78225 4.32865 7.11115 4.53468C7.44005 4.7407 7.69639 5.03354 7.84777 5.37615C7.99914 5.71876 8.03875 6.09576 7.96158 6.45948C7.88441 6.82319 7.69393 7.15728 7.41422 7.41951C7.13452 7.68173 6.77815 7.86031 6.39019 7.93265C6.00223 8.005 5.60009 7.96787 5.23464 7.82596C4.86919 7.68404 4.55683 7.44372 4.33707 7.13538C4.11731 6.82703 4.00001 6.46452 4.00001 6.09368C4.00001 5.5964 4.21072 5.11949 4.5858 4.76786C4.96087 4.41623 5.46958 4.21868 6.00001 4.21868Z" fill="white"/>
</svg>
