<svg width="29" height="29" viewBox="0 0 29 29" fill="none" xmlns="http://www.w3.org/2000/svg">
<path d="M14.5047 7.08843C10.4036 7.08843 7.09384 10.3982 7.09384 14.4993C7.09384 18.6003 10.4036 21.9101 14.5047 21.9101C18.6058 21.9101 21.9155 18.6003 21.9155 14.4993C21.9155 10.3982 18.6058 7.08843 14.5047 7.08843ZM14.5047 19.3158C11.8525 19.3158 9.68818 17.1514 9.68818 14.4993C9.68818 11.8471 11.8525 9.68277 14.5047 9.68277C17.1568 9.68277 19.3212 11.8471 19.3212 14.4993C19.3212 17.1514 17.1568 19.3158 14.5047 19.3158ZM22.219 5.05777C21.2615 5.05777 20.4883 5.83101 20.4883 6.78853C20.4883 7.74605 21.2615 8.51929 22.219 8.51929C23.1765 8.51929 23.9498 7.74966 23.9498 6.78853C23.9501 6.56116 23.9055 6.33597 23.8186 6.12586C23.7317 5.91574 23.6043 5.72483 23.4435 5.56406C23.2827 5.40329 23.0918 5.27581 22.8817 5.18893C22.6716 5.10205 22.4464 5.05748 22.219 5.05777ZM28.9506 14.4993C28.9506 12.5047 28.9686 10.5283 28.8566 8.53736C28.7446 6.22486 28.2171 4.17251 26.5261 2.4815C24.8314 0.786866 22.7827 0.26294 20.4702 0.150928C18.4757 0.0389165 16.4992 0.056983 14.5083 0.056983C12.5138 0.056983 10.5373 0.0389165 8.54638 0.150928C6.23388 0.26294 4.18154 0.790479 2.49053 2.4815C0.795898 4.17613 0.271973 6.22486 0.159961 8.53736C0.0479497 10.5319 0.0660162 12.5084 0.0660162 14.4993C0.0660162 16.4902 0.0479497 18.4703 0.159961 20.4612C0.271973 22.7737 0.799512 24.826 2.49053 26.5171C4.18515 28.2117 6.23388 28.7356 8.54638 28.8476C10.5409 28.9596 12.5174 28.9416 14.5083 28.9416C16.5028 28.9416 18.4793 28.9596 20.4702 28.8476C22.7827 28.7356 24.835 28.2081 26.5261 26.5171C28.2207 24.8224 28.7446 22.7737 28.8566 20.4612C28.9722 18.4703 28.9506 16.4938 28.9506 14.4993ZM25.7709 23.0194C25.5071 23.677 25.1891 24.1684 24.6797 24.6743C24.1702 25.1838 23.6824 25.5017 23.0248 25.7655C21.1242 26.5207 16.6112 26.3508 14.5047 26.3508C12.3981 26.3508 7.88154 26.5207 5.98095 25.7691C5.32334 25.5053 4.83193 25.1874 4.32607 24.6779C3.8166 24.1684 3.49863 23.6806 3.23486 23.023C2.4833 21.1188 2.65312 16.6058 2.65312 14.4993C2.65312 12.3927 2.4833 7.87613 3.23486 5.97554C3.49863 5.31792 3.8166 4.82652 4.32607 4.32066C4.83554 3.8148 5.32334 3.49322 5.98095 3.22945C7.88154 2.47788 12.3981 2.64771 14.5047 2.64771C16.6112 2.64771 21.1278 2.47788 23.0284 3.22945C23.686 3.49322 24.1774 3.81118 24.6833 4.32066C25.1928 4.83013 25.5107 5.31792 25.7745 5.97554C26.5261 7.87613 26.3562 12.3927 26.3562 14.4993C26.3562 16.6058 26.5261 21.1188 25.7709 23.0194Z" fill="white"/>
</svg>
