<svg width="140" height="128" viewBox="0 0 140 128" fill="none" xmlns="http://www.w3.org/2000/svg">
<path d="M111.297 183.583C111.365 178.655 113.915 160.7 115.737 140.173C115.737 140.173 108.335 119.038 107.112 114.313C106.745 113.51 107.112 91.8576 108.98 87.4476C111.507 81.6801 111.845 75.7251 116.57 76.4076C120.027 76.9026 123.32 82.8501 127.302 91.4076C130.587 98.4426 134 111.005 136.167 116.908L136.812 118.273C139.017 124.82 138.687 127.723 139.437 131.15C139.932 133.31 138.83 146.9 138.5 152.743C138.155 159.635 135.785 186.575 131.9 189.68L112.955 185.75C112.479 185.62 112.06 185.338 111.76 184.946C111.461 184.555 111.298 184.076 111.297 183.583Z" fill="#5A5F2B"/>
<path d="M122.053 128.638C120.418 127.595 116.39 128.945 116.578 127.7C116.765 126.455 118.828 125.45 114.89 123.688C110.953 121.925 112.145 126.26 114.605 129.86C117.065 133.46 120.478 137.038 122.555 135.41C124.633 133.783 126.793 131.653 122.053 128.638Z" fill="#7D7C3D"/>
<path d="M113.697 100.73C116.622 96.4251 114.41 99.5676 115.632 102.043C116.855 104.518 119.045 99.3351 121.632 98.2401C123.372 97.4901 125.382 93.1026 126.882 90.3501C127.654 91.9036 128.345 93.4957 128.952 95.1201C128.532 96.0576 128.09 96.3726 127.67 97.3101C125.802 101.413 126.47 101.81 122.652 101.458C118.835 101.105 120.785 104.263 119.652 105.898C118.52 107.533 115.857 104.968 113.48 105.275C111.103 105.583 110.75 105.028 113.697 100.73Z" fill="#7D7C3D"/>
<path d="M108.965 106.37C109.152 105.433 110.727 105.028 110.615 104.218C110.502 103.408 113.06 104.87 113.697 106.58C114.335 108.29 116.802 106.048 114.98 103.655C113.157 101.263 107.375 100.483 108.68 98.8027C109.985 97.1227 113.075 100.67 114.927 101.173C116.78 101.675 117.62 105.935 120.005 105.08C122.39 104.225 120.822 107.51 117.672 108.08C114.522 108.65 114.537 109.948 112.055 108.71C109.572 107.473 108.627 108.05 108.965 106.37Z" fill="#4B4A33"/>
<path d="M112.407 87.5001C114.275 85.0476 115.355 87.8151 116.3 86.5626C117.629 85.0028 119.175 83.6415 120.89 82.5201C121.168 82.3017 121.383 82.0143 121.514 81.6865C121.646 81.3588 121.689 81.0023 121.64 80.6526C122.128 81.3238 122.569 82.028 122.96 82.7601C122.998 83.2748 123.114 83.7806 123.305 84.2601C123.597 84.7701 124.01 85.4376 124.303 85.9476C125.803 88.6626 126.327 89.0001 127.797 92.3976C127.152 92.5026 127.37 94.2651 126.5 93.8976C123.605 92.8926 120.882 94.4826 123.012 96.8376C125.142 99.1926 126.537 102.74 122.6 101.18C118.662 99.6201 119.6 94.8201 116.915 93.6126C113.697 92.2701 110.502 89.9751 112.407 87.5001Z" fill="#979B6E"/>
<path d="M120.343 117.5C120.583 114.358 127.317 116.33 129.987 115.4C131.78 114.763 133.857 116.008 136.077 116.398C136.145 116.855 136.925 118.513 137.247 119.518L137.292 119.638C137.613 120.622 137.878 121.624 138.087 122.638C135.702 125.285 136.22 126.575 132.477 127.063C128.412 127.603 127.73 128.99 126.77 126.613C126.23 125.285 125.008 125.758 124.22 124.835C123.433 123.913 124.22 118.588 126.418 120.155C128.615 121.723 129.972 119.825 125.788 118.348C121.603 116.87 120.088 120.605 120.343 117.5Z" fill="#4B4A33"/>
<path d="M131 113.36C130.767 111.433 127.182 109.175 128.3 108.5C129.417 107.825 131.435 108.845 130.34 104.645C129.245 100.445 126.59 104.158 125.367 108.335C124.145 112.513 123.5 117.425 126.117 118.01C128.735 118.595 131.66 119 131 113.36Z" fill="#7D7C3D"/>
<path d="M110.592 125.21C111.177 123.343 114.448 124.205 114.2 120.943C113.923 117.275 111.395 117.268 113.6 113.218C115.805 109.168 118.025 109.963 119.218 112.79C120.41 115.618 123.388 116.54 123.718 113.413C124.048 110.285 125.75 106.865 127.22 110.81C128.69 114.755 124.475 117.275 125.398 120.095C126.508 123.478 126.898 127.363 123.83 127.595C120.763 127.828 122.09 125.195 120.545 125.308C118.492 125.372 116.44 125.137 114.455 124.61C112.82 124.235 111.763 126.17 111.148 126.86C110.99 126.448 110.75 125.593 110.592 125.21Z" fill="#979B6E"/>
<path opacity="0.3" d="M111.297 183.583C111.365 178.655 113.915 160.7 115.737 140.173C115.737 140.173 108.335 119.038 107.112 114.313C106.745 113.51 107.112 91.8576 108.98 87.4476C111.507 81.6801 111.845 75.7251 116.57 76.4076C120.027 76.9026 123.32 82.8501 127.302 91.4076C130.587 98.4426 134 111.005 136.167 116.908L136.812 118.273C139.017 124.82 138.687 127.723 139.437 131.15C139.932 133.31 138.83 146.9 138.5 152.743C138.155 159.635 135.785 186.575 131.9 189.68L112.955 185.75C112.479 185.62 112.06 185.338 111.76 184.946C111.461 184.555 111.298 184.076 111.297 183.583Z" fill="#5A5F2B"/>
<path d="M28.445 183.583C28.385 178.655 25.8275 160.7 24.0125 140.173C24.0125 140.173 31.415 119.038 32.645 114.313C32.9975 113.51 32.645 91.8576 30.77 87.4476C28.2425 81.6801 27.905 75.7251 23.18 76.4076C19.73 76.9026 16.43 82.8501 12.455 91.4076C9.16999 98.4426 5.74999 111.005 3.58999 116.908L2.94499 118.25C0.747493 124.798 1.07749 127.7 0.327494 131.128C-0.167506 133.288 0.927494 146.878 1.26499 152.72C1.61749 159.613 3.97249 186.553 7.86499 189.658L26.6825 185.75C27.1775 185.64 27.621 185.366 27.9409 184.973C28.2608 184.58 28.4384 184.09 28.445 183.583Z" fill="#5A5F2B"/>
<path d="M17.6975 128.638C19.34 127.595 23.315 128.945 23.165 127.7C23.015 126.455 20.915 125.45 24.86 123.688C28.805 121.925 27.5975 126.26 25.145 129.86C22.6925 133.46 19.2725 137.038 17.195 135.41C15.1175 133.783 12.9275 131.653 17.6975 128.638Z" fill="#7D7C3D"/>
<path d="M26.0825 100.73C23.165 96.4251 25.3325 99.5676 24.1475 102.043C22.9625 104.518 20.735 99.3351 18.1475 98.2401C16.415 97.4901 14.3975 93.1026 12.8975 90.3501C12.215 91.9101 11.5475 93.0426 10.8275 95.1201C11.255 96.0576 11.6975 96.3726 12.1175 97.3101C13.9925 101.413 13.31 101.81 17.135 101.458C20.96 101.105 19.0025 104.263 20.135 105.898C21.2675 107.533 23.93 104.968 26.315 105.275C28.7 105.583 29 105.028 26.0825 100.73Z" fill="#7D7C3D"/>
<path d="M30.7775 106.37C30.59 105.433 29.0225 105.028 29.1275 104.218C29.2325 103.408 26.69 104.87 26.0525 106.58C25.415 108.29 22.94 106.048 24.815 103.655C26.69 101.263 32.405 100.483 31.1075 98.8027C29.81 97.1227 26.7125 100.67 24.8525 101.173C22.9925 101.675 22.16 105.935 19.79 105.08C17.42 104.225 18.965 107.51 22.115 108.08C25.265 108.65 25.2425 109.948 27.7325 108.71C30.2225 107.473 31.115 108.05 30.7775 106.37Z" fill="#4B4A33"/>
<path d="M27.335 87.5001C25.4675 85.0476 24.4025 87.8151 23.4425 86.5626C22.1172 84.9991 20.5709 83.6372 18.8525 82.5201C18.5732 82.3032 18.3566 82.016 18.2248 81.6878C18.093 81.3597 18.0508 81.0024 18.1025 80.6526C17.6144 81.329 17.1734 82.0382 16.7825 82.7751C16.7492 83.2904 16.6327 83.797 16.4375 84.2751C16.145 84.7926 15.725 85.4526 15.4325 85.9701C13.9325 88.6851 13.4075 89.0226 11.9375 92.4126C12.5825 92.5176 12.365 94.2876 13.235 93.9126C16.1375 92.9001 18.8525 94.4901 16.7375 96.8526C14.6225 99.2151 13.205 102.755 17.135 101.188C21.065 99.6201 20.135 94.8276 22.82 93.6201C26.075 92.2701 29.24 89.9751 27.335 87.5001Z" fill="#979B6E"/>
<path d="M19.415 117.5C19.16 114.358 12.425 116.33 9.77001 115.4C7.96251 114.763 5.89251 116.008 3.66501 116.398C3.61251 116.855 2.82501 118.513 2.50251 119.518C2.48378 119.556 2.46871 119.596 2.45751 119.638C2.13289 120.621 1.86742 121.623 1.66251 122.638C4.04001 125.285 3.53751 126.575 7.28001 127.063C11.345 127.603 12.0275 128.99 12.9875 126.613C13.5275 125.285 14.7425 125.758 15.5375 124.835C16.3325 123.913 15.5375 118.588 13.34 120.155C11.1425 121.723 9.78501 119.825 13.9775 118.348C18.17 116.87 19.655 120.605 19.415 117.5Z" fill="#4B4A33"/>
<path d="M8.75 113.36C8.975 111.433 12.5675 109.175 11.4575 108.5C10.3475 107.825 8.3075 108.845 9.4175 104.645C10.5275 100.445 13.1675 104.158 14.3825 108.335C15.5975 112.513 16.2575 117.425 13.6325 118.01C11.0075 118.595 8.0825 119 8.75 113.36Z" fill="#7D7C3D"/>
<path d="M29.15 125.21C28.5725 123.343 25.295 124.205 25.55 120.943C25.8275 117.275 28.355 117.268 26.1425 113.218C23.93 109.168 21.725 109.963 20.525 112.79C19.325 115.618 16.3475 116.54 16.025 113.413C15.7025 110.285 14 106.865 12.5 110.81C11 114.755 15.2525 117.275 14.3225 120.095C13.22 123.478 12.8225 127.363 15.8975 127.595C18.9725 127.828 17.6225 125.195 19.1825 125.308C21.2307 125.373 23.2774 125.138 25.2575 124.61C26.9 124.235 27.9575 126.17 28.58 126.86C28.7525 126.448 29 125.593 29.15 125.21Z" fill="#979B6E"/>
<path opacity="0.3" d="M28.445 183.583C28.385 178.655 25.8275 160.7 24.0125 140.173C24.0125 140.173 31.415 119.038 32.645 114.313C32.9975 113.51 32.645 91.8576 30.77 87.4476C28.2425 81.6801 27.905 75.7251 23.18 76.4076C19.73 76.9026 16.43 82.8501 12.455 91.4076C9.16999 98.4426 5.74999 111.005 3.58999 116.908L2.94499 118.25C0.747493 124.798 1.07749 127.7 0.327494 131.128C-0.167506 133.288 0.927494 146.878 1.26499 152.72C1.61749 159.613 3.97249 186.553 7.86499 189.658L26.6825 185.75C27.1775 185.64 27.621 185.366 27.9409 184.973C28.2608 184.58 28.4384 184.09 28.445 183.583Z" fill="#5A5F2B"/>
<path d="M69.725 125.75C73.2275 113.997 96.62 75.8675 95.9225 74.2925C95.225 72.7175 98.1725 74.1725 89.1725 69.2375C80.1725 64.3025 81.3125 55.4975 81.2375 53H57.95C57.8675 55.505 59.0675 64.3175 50.03 69.2375C40.9925 74.1575 44.5175 74.66 43.775 76.28C43.0325 77.9 65.9825 113.997 69.44 125.78V127.017C69.4702 126.798 69.5229 126.581 69.5975 126.372C69.6575 126.59 69.725 126.822 69.7625 127.017L69.725 125.75Z" fill="#D59A80"/>
<path d="M81.725 56.0001C81.4175 56.3001 81.1025 56.6001 80.7875 56.8776C79.7782 57.7821 78.683 58.586 77.5175 59.2776C76.5204 59.865 75.4615 60.3404 74.36 60.6951C73.3623 61.0228 72.3307 61.2367 71.285 61.3326C69.9742 61.4753 68.6504 61.4451 67.3475 61.2426C66.2886 61.086 65.25 60.8144 64.25 60.4326C63.1334 59.9869 62.0674 59.4237 61.07 58.7526C59.8856 57.9516 58.7738 57.0481 57.7475 56.0526C53.375 51.8301 53.4125 41.1651 52.355 41.9151C50 43.5426 48.41 38.7501 48.11 35.8476C47.81 32.9451 49.1225 31.7826 50.36 32.9901C51.5975 34.1976 51.5825 32.8476 51.92 31.2726C52.0325 30.7701 52.16 30.2751 52.3025 29.7726C52.5275 29.0226 52.79 28.2726 53.0525 27.5226C53.4099 26.5897 53.8154 25.676 54.2675 24.7851C54.7846 23.8117 55.3632 22.8723 56 21.9726C56.6929 20.9661 57.4788 20.027 58.3475 19.1676C59.2548 18.2777 60.2614 17.495 61.3475 16.8351C62.5215 16.1302 63.782 15.5806 65.0975 15.2001C66.6221 14.7808 68.1963 14.5689 69.7775 14.5701C71.3258 14.5759 72.8657 14.798 74.3525 15.2301C75.6699 15.6153 76.9308 16.1726 78.1025 16.8876C79.1902 17.5481 80.197 18.3334 81.1025 19.2276C81.9885 20.0636 82.7922 20.9828 83.5025 21.9726C84.1499 22.8681 84.7339 23.8079 85.25 24.7851C85.706 25.6961 86.1091 26.6327 86.4575 27.5901C86.75 28.3401 87.005 29.0901 87.2075 29.8401C87.3425 30.3276 87.4775 30.7776 87.59 31.3401C87.9275 32.9151 87.935 34.2576 89.1425 33.0501C90.35 31.8426 91.655 33.0501 91.3475 35.9151C91.04 38.7801 89.48 43.6101 87.095 41.9751C86.0675 41.1426 86.105 51.8151 81.725 56.0001Z" fill="#E0A484"/>
<path d="M58.4975 21.8901C55.5575 20.3301 55.0625 25.7676 53.435 28.1601C51.8075 30.5526 52.9775 35.0001 51.935 34.1601C50.8925 33.3201 49.9175 33.2226 49.58 32.5851C49.385 32.2326 45.9125 18.9651 50.18 11.9451C51.5375 10.0026 53.39 9.47008 53.84 9.02758C54.29 8.58508 55.25 4.62508 63.875 2.60758C70.5575 1.04758 82.2425 1.90258 88.31 11.6751C94.3775 21.4476 89.9375 31.5201 89.75 32.5851C89.5625 33.6501 87.9575 33.2226 87.32 34.2576C86.6825 35.2926 86.9525 30.5901 86.045 29.2551C85.1375 27.9201 84.695 25.5501 82.82 25.1901C80.945 24.8301 66.9125 26.3826 58.4975 21.8901Z" fill="#373737"/>
<path d="M53.105 65.3002C50.105 67.6177 44.105 69.5152 38.315 71.8552C32.525 74.1952 23.105 75.7702 23.8775 76.8652C24.65 77.9602 30.8525 85.1602 31.3775 95.8927C31.9025 106.625 33.1325 125.323 34.0775 139.685C34.8275 150.605 25.5875 191.368 29.0675 194.105C32.5475 196.843 65.2775 197.75 73.4675 197.75V88.0852C73.4675 88.0852 62.3825 80.1277 57.77 71.7502C55.4375 67.4827 55.25 63.6352 53.105 65.3002Z" fill="#8D8B4D"/>
<path d="M86.15 65.3C89.15 67.6175 95.15 69.515 100.94 71.855C106.73 74.195 116.135 75.7475 115.415 76.8425C114.695 77.9375 108.402 85.13 107.847 95.8625C107.292 106.595 106.1 125.293 105.155 139.655C104.405 150.575 113.637 191.345 110.172 194.075C106.707 196.805 73.94 197.683 65.7575 197.683V88.085C65.7575 88.085 76.835 80.1275 81.4475 71.78C83.825 67.4825 83.9825 63.635 86.15 65.3Z" fill="#838045"/>
<path d="M38.63 104.75C39.02 105.905 37.0775 106.49 38.63 108.042C40.1825 109.595 44.45 107.66 44.84 109.4C45.23 111.14 42.515 114.072 44.84 114.837C47.165 115.602 46.7825 114.837 48.9125 114.837C51.0425 114.837 51.4325 110.517 48.1625 109.962C44.8925 109.407 50.87 107.847 48.545 105.905C46.22 103.962 44.8625 105.522 42.9275 104.75C41.5299 104.303 40.0276 104.303 38.63 104.75Z" fill="#979B6E"/>
<path d="M81.7625 89C82.1525 90.1625 80.21 90.74 81.7625 92.2925C83.315 93.845 87.5825 91.91 87.9725 93.65C88.3625 95.39 85.6475 98.33 87.9725 99.0875C90.2975 99.845 89.915 99.0875 92.045 99.0875C94.175 99.0875 94.565 94.775 91.295 94.2125C88.025 93.65 94.0025 92.0975 91.6775 90.1625C89.3525 88.2275 87.995 89.78 86.06 89C84.6624 88.5527 83.1601 88.5527 81.7625 89Z" fill="#979B6E"/>
<path d="M55.685 83.4652C55.2575 84.3352 56.27 85.5952 55.685 86.1802C55.1 86.7652 58.0175 87.1102 59.57 86.1802C61.1225 85.2502 61.7 88.5052 58.82 89.2852C55.94 90.0652 50.87 87.1477 50.87 89.2852C50.87 91.4227 55.55 90.4477 57.2675 91.2202C58.985 91.9927 62.315 89.0902 63.6725 91.2202C65.03 93.3502 65.8025 89.8102 63.6725 87.4102C61.5425 85.0102 62.315 84.0427 59.6 83.4652C56.885 82.8877 56.5025 81.9127 55.685 83.4652Z" fill="#4B4A33"/>
<path d="M84.695 134.87C85.3025 133.58 86.4875 134.12 87.3275 133.242C88.1675 132.365 87.65 126.987 85.3925 128.48C83.135 129.972 81.86 127.955 86.1425 126.71C90.425 125.465 91.76 129.26 91.6625 126.11C91.565 122.96 84.755 124.557 82.1525 123.47C79.55 122.382 74.78 126.8 72.7025 123.695C70.625 120.59 69.605 125.855 72.83 129.312C76.055 132.77 74.9525 134.232 78.9875 134.997C83.0225 135.762 83.5625 137.187 84.695 134.87Z" fill="#7D7C3D"/>
<path d="M95.975 119.42C96.665 120.103 98.18 119.525 98.57 120.26C98.96 120.995 100.205 118.348 99.755 116.51C99.305 114.673 102.627 115.19 102.47 118.205C102.312 121.22 97.97 125.12 100.025 125.773C102.08 126.425 102.56 121.693 103.835 120.275C105.11 118.858 103.355 114.823 105.8 114.185C108.245 113.548 105.11 111.725 102.177 113.015C99.245 114.305 98.555 113.278 97.175 115.678C95.795 118.078 94.7375 118.25 95.975 119.42Z" fill="#4B4A33"/>
<path d="M46.25 75.0426C43.85 75.7476 42.695 72.0426 41.375 70.6626C40.67 70.9701 39.6275 71.3451 38.9075 71.6001C39.1775 73.5501 41.1575 77.5251 40.0475 80.0226C38.495 83.5101 42.2975 82.7226 44.315 81.7626C45.965 80.9676 44.315 81.7626 45.905 83.8926C47.495 86.0226 48.965 80.7951 51.905 79.0476C54.845 77.3001 49.565 74.0676 46.25 75.0426Z" fill="#4B4A33"/>
<path d="M111.447 83.0452C111.566 82.7822 111.709 82.5311 111.875 82.2952C111.177 81.5822 110.303 81.0675 109.341 80.8039C108.379 80.5403 107.364 80.5373 106.4 80.7952C103.107 81.7327 101.937 75.7552 99.8525 76.5202C97.7675 77.2852 101.72 82.3402 100.197 85.8802C98.675 89.4202 102.447 88.5877 104.465 87.6277C106.107 86.8327 104.465 87.6277 106.055 89.7577C107.36 91.5202 107.922 88.5052 109.932 86.3377C110.348 85.2014 110.855 84.1003 111.447 83.0452Z" fill="#4B4A33"/>
<path d="M69.725 96.3727C71.66 96.4627 74.225 99.8677 74.765 98.7052C75.305 97.5427 74.1875 95.6002 78.4475 96.3727C82.7075 97.1452 79.1975 100.063 75.155 101.623C71.1125 103.183 66.23 104.143 65.4575 101.623C64.685 99.1027 64.1075 96.1252 69.725 96.3727Z" fill="#7D7C3D"/>
<path d="M45.0575 122.833C45.38 124.708 42.56 127.918 43.82 128.24C45.08 128.563 46.745 127.04 46.865 131.375C46.985 135.71 43.415 132.875 41.0525 129.223C38.69 125.57 36.7475 121.018 39.05 119.75C41.3525 118.483 44.1425 117.26 45.0575 122.833Z" fill="#7D7C3D"/>
<path d="M93.6575 74.2851C95.5925 74.3676 98.12 77.7725 98.6975 76.6025C99.275 75.4325 98.12 73.5126 102.387 74.2851C106.655 75.0576 103.137 77.9601 99.0875 79.5351C95.0375 81.1101 90.1625 82.0626 89.39 79.5351C88.6175 77.0076 88.01 74.0001 93.6575 74.2851Z" fill="#7D7C3D"/>
<path d="M43.7675 102.08C45.065 100.318 49.85 100.078 49.13 98.8101C48.41 97.5426 45.845 97.4076 49.25 93.8751C52.655 90.3426 53.21 95.4651 52.1 100.265C50.99 105.065 48.8675 110.24 46.0025 109.393C43.1375 108.545 39.9875 107.233 43.7675 102.08Z" fill="#7D7C3D"/>
<path d="M59.4275 75.8227C56.69 74.8852 55.4975 72.2752 57.9725 71.4802C57.2835 70.5434 56.6929 69.5381 56.21 68.4802C54.62 69.4177 53.255 70.5502 51.71 70.1677C48.2525 69.3127 44.3375 69.2302 44.3375 72.2977C44.3375 75.3652 46.865 73.8427 46.865 75.3952C46.9624 77.4407 47.3539 79.4614 48.0275 81.3952C48.7775 83.9152 43.76 85.4677 46.865 85.4677C49.97 85.4677 48.0275 81.3952 51.71 81.3952C55.3925 81.3952 55.5875 83.9152 59.465 81.3952C63.3425 78.8752 62.33 76.7827 59.4275 75.8227Z" fill="#979B6E"/>
<path d="M62.06 109.925C58.5875 109.07 54.6875 108.988 54.6875 112.055C54.6875 115.123 57.2 113.608 57.2 115.16C57.3036 117.205 57.6975 119.226 58.37 121.16C59.12 123.688 54.1025 125.24 57.2 125.24C60.2975 125.24 58.37 121.16 62.06 121.16C65.75 121.16 65.93 123.688 69.815 121.16C73.7 118.633 72.725 116.488 69.815 115.55C66.905 114.613 65.7425 111.673 68.8775 111.088C72.0125 110.503 75.2825 108.568 71.21 107.405C67.1375 106.243 64.94 110.66 62.06 109.925Z" fill="#979B6E"/>
<path d="M94.7975 88.2501C91.3325 87.4026 87.425 87.3126 87.425 90.3876C87.425 93.4626 89.9525 91.9401 89.9525 93.4776C90.045 95.523 90.4341 97.5441 91.1075 99.4776C91.8575 101.998 86.84 103.543 89.9525 103.543C93.065 103.543 91.1075 99.4776 94.7975 99.4776C98.4875 99.4776 98.6825 101.998 102.552 99.4776C106.422 96.9576 105.462 94.7976 102.552 93.8601C99.6425 92.9226 98.48 89.9751 101.615 89.3601C104.75 88.7451 108.027 86.8402 103.947 85.6777C99.8675 84.5152 97.6775 88.9401 94.7975 88.2501Z" fill="#979B6E"/>
<path d="M43.1 138.59C43.625 134.945 46.1525 135.11 44.21 130.91C42.2675 126.71 40.025 127.363 38.6375 130.108C37.25 132.853 34.2275 133.588 34.0925 130.423C34.0468 129.24 33.793 128.075 33.3425 126.98V128.653C33.395 129.905 33.47 131.15 33.545 132.403C33.6275 133.423 33.6875 134.458 33.725 135.485C33.7625 136.513 33.8075 137.278 33.8525 138.178C33.8426 138.506 33.8627 138.835 33.9125 139.16C34.0999 140.548 34.1226 141.952 33.98 143.345V144.598C35.765 144.343 35.06 142.348 36.3875 142.528C38.4278 142.728 40.4862 142.634 42.5 142.25C45.11 141.845 45.9275 147.065 46.37 143.983C46.8125 140.9 42.59 142.25 43.1 138.59Z" fill="#979B6E"/>
<path d="M85.625 109.925C82.1525 109.07 78.2525 108.988 78.2525 112.055C78.2525 115.123 80.7725 113.608 80.7725 115.16C80.8483 117.216 81.2222 119.249 81.8825 121.198C82.6325 123.725 77.615 125.278 80.7125 125.278C83.81 125.278 81.8825 121.198 85.625 121.198C89.3675 121.198 89.5025 123.725 93.38 121.198C97.2575 118.67 96.29 116.518 93.38 115.588C90.47 114.658 89.3075 111.71 92.45 111.125C95.5925 110.54 98.8475 108.605 94.775 107.443C90.7025 106.28 88.4825 110.66 85.625 109.925Z" fill="#979B6E"/>
<path d="M69.8225 121.49C69.3875 122.36 70.4075 123.62 69.8225 124.205C69.2375 124.79 72.1475 125.135 73.7 124.205C75.2525 123.275 75.83 126.53 72.95 127.31C70.07 128.09 65 125.173 65 127.31C65 129.448 69.68 128.465 71.3975 129.245C73.115 130.025 76.445 127.108 77.795 129.245C79.145 131.383 79.94 127.835 77.795 125.435C75.65 123.035 76.445 122.068 73.73 121.49C71.015 120.913 70.595 119.938 69.8225 121.49Z" fill="#4B4A33"/>
<path d="M87.5 108.598C87.8075 110.465 85.0025 113.683 86.255 114.013C87.5075 114.343 89.1725 112.805 89.255 117.14C89.3375 121.475 85.8125 118.64 83.4575 114.995C81.1025 111.35 79.1825 106.783 81.5 105.5C83.8175 104.218 86.5625 103.025 87.5 108.598Z" fill="#7D7C3D"/>
<path d="M53.3975 106.79C52.9625 107.66 53.9825 108.92 53.3975 109.505C52.8125 110.09 55.7225 110.435 57.275 109.505C58.8275 108.575 59.4125 111.83 56.525 112.61C53.6375 113.39 48.5675 110.473 48.5675 112.61C48.5675 114.748 53.2475 113.773 54.9725 114.545C56.6975 115.318 60.0125 112.415 61.37 114.545C62.7275 116.675 63.5 113.135 61.37 110.735C59.24 108.335 60.0125 107.368 57.2975 106.79C54.5825 106.213 54.17 105.245 53.3975 106.79Z" fill="#4B4A33"/>
<path d="M103.25 109.138C102.23 108.455 103.407 106.805 101.225 106.528C99.0425 106.25 96.86 110.39 95.48 109.243C94.1 108.095 94.4825 104.135 92.1725 104.945C89.8625 105.755 90.635 106.123 88.94 107.435C87.245 108.748 89.5775 112.385 92.5325 110.81C95.4875 109.235 91.67 114.14 94.7075 114.253C97.745 114.365 97.8575 112.31 99.86 111.74C101.228 111.236 102.41 110.329 103.25 109.138Z" fill="#979B6E"/>
<path d="M48.9425 108.688C49.6925 107.48 50.81 108.178 51.7475 107.405C52.685 106.633 52.88 101.24 50.435 102.44C47.99 103.64 46.9925 101.503 51.3725 100.775C55.7525 100.048 56.6225 104 56.9225 100.865C57.2225 97.7302 50.2625 98.4651 47.81 97.0626C45.3575 95.6601 40.0775 99.4476 38.405 96.1251C36.7325 92.8026 35.0675 97.8951 37.835 101.735C40.6025 105.575 39.335 106.88 43.235 108.14C47.135 109.4 47.5625 110.863 48.9425 108.688Z" fill="#4B4A33"/>
<path d="M48.4325 113.42C48.7475 114.815 47.5025 115.115 47.345 116.323C47.1875 117.53 50.9075 121.468 51.785 118.918C52.6625 116.368 54.8975 117.163 52.28 120.785C49.6625 124.408 46.28 122.173 48.275 124.625C50.27 127.078 54.695 121.625 57.425 120.875C60.155 120.125 61.25 113.75 64.76 114.928C68.27 116.105 65.8925 111.328 61.2275 110.563C56.5625 109.798 56.5475 107.96 52.88 109.813C49.2125 111.665 47.885 110.923 48.4325 113.42Z" fill="#7D7C3D"/>
<path d="M90.83 133.318C89.2475 134.428 85.2125 133.318 85.4225 134.548C85.6325 135.778 87.7775 136.655 83.9225 138.65C80.0675 140.645 81.065 136.198 83.3375 132.485C85.61 128.773 88.8575 124.985 91.0175 126.56C93.1775 128.135 95.45 130.078 90.83 133.318Z" fill="#7D7C3D"/>
<path d="M87.1325 98.7502C85.715 97.4302 86 93.2002 84.8075 93.7027C83.615 94.2052 83.2325 96.4477 80.4875 93.0877C77.7425 89.7277 82.2875 89.7802 86.3975 91.2127C90.5075 92.6452 94.8125 95.0827 93.7775 97.5052C92.7425 99.9277 91.25 102.62 87.1325 98.7502Z" fill="#7D7C3D"/>
<path d="M81.5375 119.345C84.8075 117.905 87.965 115.595 86.0375 113.15C84.11 110.705 83.09 113.473 82.145 112.213C80.8177 110.653 79.2717 109.294 77.555 108.178C75.4025 106.678 78.485 102.335 75.98 104.233C73.475 106.13 77.555 108.178 74.63 110.42C71.705 112.663 70.0175 110.795 68.495 115.16C66.9725 119.525 69.0275 120.628 71.93 119.615C74.8325 118.603 77.54 120.2 75.4175 122.555C73.295 124.91 71.8925 128.458 75.83 126.898C79.7675 125.338 78.8375 120.545 81.5375 119.345Z" fill="#979B6E"/>
<path d="M94.8875 86.5327C93.905 82.4077 89.0225 82.6852 88.22 79.8277C87.2825 76.3927 85.415 72.9277 82.745 74.4577C80.075 75.9877 82.6325 77.4127 81.245 78.2077C79.5038 79.2973 77.9278 80.6309 76.565 82.1677C76.2477 82.4554 75.8577 82.6508 75.4373 82.7328C75.0169 82.8148 74.5821 82.7801 74.18 82.6327C73.8594 83.0961 73.4785 83.5148 73.0475 83.8777C74.5925 85.0627 76.7975 82.5577 78.38 85.3777C80.1875 88.5877 78.095 89.9902 82.19 92.1277C86.285 94.2652 87.6725 92.3827 87.095 89.3227C86.5175 86.2627 88.4675 83.8702 90.5 86.2777C92.5325 88.6852 95.9225 90.6127 94.8875 86.5327Z" fill="#979B6E"/>
<path d="M42.68 113.36C41.6975 109.243 36.8075 109.513 36.0125 106.655C35.2175 103.798 33.7625 100.828 31.685 100.94C31.6925 101.01 31.6925 101.08 31.685 101.15C31.865 104.15 32.15 108.073 32.3075 111.335C32.465 114.598 32.7425 116.953 32.855 120.148C34.25 119.885 35.3075 118.085 34.9325 116.173C34.355 113.173 36.32 110.728 38.3525 113.173C40.385 115.618 43.6625 117.5 42.68 113.36Z" fill="#979B6E"/>
<path d="M62.9 133.738C66.155 132.283 69.3275 129.988 67.4 127.543C65.4725 125.098 64.46 127.85 63.5075 126.605C62.1759 125.043 60.6278 123.679 58.91 122.555C56.7575 121.055 59.8475 116.728 57.35 118.618C54.8525 120.508 58.91 122.555 55.9925 124.813C53.075 127.07 51.38 125.18 49.8575 129.545C48.335 133.91 50.3975 135.005 53.2925 134C56.1875 132.995 58.9025 134.585 56.78 136.933C54.6575 139.28 53.255 142.85 57.1925 141.275C61.13 139.7 60.185 134.93 62.9 133.738Z" fill="#979B6E"/>
<path d="M34.25 98.3302C33.8415 98.0746 33.3731 97.9304 32.8915 97.9119C32.4099 97.8935 31.9319 98.0015 31.505 98.2252C31.505 98.5477 31.685 100.58 31.6475 101.173C31.7375 102.673 31.8125 104.173 31.9175 105.613C32.6685 105.628 33.4105 105.447 34.07 105.088C38.705 101.833 36.425 99.8602 34.25 98.3302Z" fill="#7D7C3D"/>
<path d="M62.24 135.943C60.815 134.623 61.1075 130.393 59.9075 130.903C58.7075 131.413 58.3325 133.64 55.595 130.28C52.8575 126.92 57.3875 126.98 61.4975 128.413C65.6075 129.845 69.92 132.275 68.8775 134.698C67.835 137.12 66.38 139.798 62.24 135.943Z" fill="#7D7C3D"/>
<path d="M90.305 116.555C90.1175 115.625 88.535 115.228 88.64 114.403C88.745 113.578 86.21 115.063 85.5725 116.78C84.935 118.498 82.4525 116.24 84.29 113.855C86.1275 111.47 91.8875 110.683 90.5825 108.988C89.2775 107.293 86.1875 110.915 84.335 111.365C82.4825 111.815 81.6425 116.135 79.265 115.273C76.8875 114.41 78.44 117.695 81.5975 118.273C84.755 118.85 84.7325 120.148 87.2075 118.91C89.6825 117.673 90.6575 118.25 90.305 116.555Z" fill="#4B4A33"/>
<path d="M40.355 96.2602C41.855 97.1977 40.19 99.7102 43.415 100.01C46.64 100.31 49.73 94.1602 51.83 95.8027C53.93 97.4452 53.4875 103.303 56.885 102.035C60.2825 100.768 59.135 100.228 61.565 98.2852C63.995 96.3427 60.4475 90.9952 56.1425 93.4177C51.8375 95.8402 57.2975 88.4677 52.8275 88.4152C48.3575 88.3627 48.2375 91.4152 45.3275 92.3077C42.4175 93.2002 40.355 96.2602 40.355 96.2602Z" fill="#979B6E"/>
<path d="M33.4025 73.5276C32.93 73.6551 32.3975 73.8426 31.9025 73.9476C31.2974 74.7776 30.8966 75.7386 30.7325 76.7526C30.4475 78.3201 28.1975 76.9401 28.4825 74.8851C27.6875 74.9976 23.9825 76.7526 27.0425 78.9801C29.645 80.8551 30.455 80.2251 32.66 78.5976C34.865 76.9701 35.885 77.3376 35.255 75.7176C35.105 74.9151 33.755 74.0976 33.4025 73.5276Z" fill="#4B4A33"/>
<path d="M37.7225 79.8127C36.2225 76.8127 32.5175 81.7552 33.2225 85.1077C33.605 86.8852 31.64 88.1077 30.2225 88.9777L30.38 89.5477C30.6425 90.4852 30.62 90.8002 30.9125 91.8727C32.885 91.4752 35.825 90.6277 37.7825 91.6852C41.15 93.5002 40.655 89.6227 39.8525 87.5602C39.1775 85.8577 39.8525 87.5602 42.1025 86.1427C44.3525 84.7252 39.2375 82.8502 37.7225 79.8127Z" fill="#4B4A33"/>
<path d="M36.395 72.5902C36.14 73.6027 34.7975 75.8602 34.52 77.3377C34.235 79.1077 29.27 82.1527 28.1075 83.6227C28.4825 84.3127 28.5425 84.5602 28.8575 85.2727C29.0075 85.6027 29.15 85.9402 29.27 86.2777C30.8375 85.4302 33.185 83.2177 34.88 81.8752C37.52 79.8127 37.9475 80.1952 36.9875 77.5027C36.0275 74.8102 38.6675 75.6352 39.665 74.5027C40.2425 73.8727 39.2525 72.5527 38.66 71.6902C37.91 72.0202 37.19 72.3202 36.395 72.5902Z" fill="#7D7C3D"/>
<path d="M82.445 100.032C83.2475 102.095 83.735 105.965 80.375 104.15C77.015 102.335 71.69 105.935 71.0225 103.782C70.355 101.63 76.4975 100.977 75.7775 97.58C75.0575 94.1825 78.74 89.2475 80.2775 92.2775C81.815 95.3075 86.9075 97.19 84.6575 98.615C82.4075 100.04 81.77 98.33 82.445 100.032Z" fill="#4B4A33"/>
<path d="M62.945 85.5951C62.945 85.5951 72.47 87.2826 73.5575 88.0701C73.475 87.8676 61.5575 75.4251 58.8275 71.6751C56.9876 68.9901 56.2444 65.703 56.75 62.4876L57.5 60.0576C55.5125 60.8076 53.48 60.9876 52.415 65.0826C51.35 69.1776 49.34 88.7376 51.8075 88.3701C54.5 87.9651 57.3875 84.1251 62.945 85.5951Z" fill="#5A5F2B"/>
<path d="M86.3975 3.50011C81.485 0.297608 69.8225 0.297607 69.8225 0.297607C69.8225 0.297607 58.1675 0.297608 53.255 3.50011C48.3425 6.70261 48.575 18.1251 48.455 21.8976H91.25C91.07 18.1401 91.31 6.71761 86.3975 3.50011Z" fill="#5A5F2B"/>
<path d="M86.75 3.77015C84.6425 2.07515 79.16 0.905147 75.725 0.650146C75.6552 0.657649 75.5848 0.657649 75.515 0.650146C75.6373 2.36797 76.347 3.99137 77.525 5.24765C80.6675 8.61515 79.595 10.0251 83.525 10.7751C87.455 11.5252 88.025 12.8976 89.1425 10.6476C89.3825 10.1376 89.795 10.0926 90.155 9.95015C90.0066 9.28133 89.8085 8.62452 89.5625 7.98515C89.0335 6.34673 88.0598 4.88747 86.75 3.77015Z" fill="#4B4A33"/>
<path d="M82.4675 11.0002C81.41 10.0627 82.2275 9.12522 81.62 8.09772C81.0125 7.07022 75.8525 6.22272 76.655 8.67522C77.4575 11.1277 75.245 11.8552 75.155 7.52772C75.065 3.20022 79.0025 2.95272 76.025 2.20272C73.0475 1.45272 72.7775 8.28522 71.0825 10.4527C69.3875 12.6202 72.29 18.2302 68.8325 19.3702C65.375 20.5102 70.055 22.8427 74.15 20.7052C78.245 18.5677 79.31 19.9552 81.0725 16.4152C82.835 12.8752 84.3575 12.6202 82.4675 11.0002Z" fill="#4B4A33"/>
<path d="M70.205 6.66503C68.9825 6.35003 71.705 3.26002 71.405 1.41502C71.3525 1.07752 71.3375 0.665025 71.2775 0.357525C69.012 0.259879 66.7423 0.342641 64.49 0.605025C64.6325 2.54752 66.0275 5.28502 67.49 7.63252C69.785 11.2025 73.2575 13.94 73.1075 9.72503C72.9575 5.51003 71.4275 7.00253 70.205 6.66503Z" fill="#7D7C3D"/>
<path d="M81.725 21.8451C84.53 21.7401 84.8075 21.8451 85.5875 18.7251C86.525 15.1101 88.7825 17.9301 90.6575 17.4576C90.7993 17.4209 90.9338 17.36 91.055 17.2776C90.995 16.3401 90.935 15.5826 90.86 14.6601C90.7253 13.2148 90.4999 11.7795 90.185 10.3626C90.185 10.3101 90.0875 9.87508 90.0725 9.83008C89.4725 9.94258 88.7675 10.1001 87.92 10.3176C83.0075 11.5401 86.6075 10.5801 88.475 12.5226C90.3425 14.4651 84.8525 14.7726 83 16.7151C81.1475 18.6576 72.2 18.4251 71.45 19.6176C70.9775 20.3676 69.5225 20.2551 68.915 20.4576C69.7167 20.8304 70.4719 21.2961 71.165 21.8451H81.725Z" fill="#7D7C3D"/>
<path d="M63.92 0.650146C61.051 0.88186 58.2219 1.46885 55.4975 2.39764C55.4975 5.21014 50.2475 5.96764 50.825 7.94014C51.4025 9.91264 56.615 6.53015 59.885 8.28515C63.155 10.0401 62.6975 6.28265 61.8875 4.28015C61.2425 2.61515 61.8875 4.28015 64.0775 2.90015C65.09 2.33015 64.82 1.48265 63.92 0.650146Z" fill="#4B4A33"/>
<path d="M48.8 21.7851H53.105C54.89 20.6526 56.855 18.9126 58.2725 18.5226C60.9275 17.7726 62.0225 11.5776 65.42 12.7401C68.8175 13.9026 66.5 9.22263 62 8.48013C57.5 7.73763 57.44 5.96013 53.8775 7.73013C50.315 9.50013 49.655 8.84763 50.1875 11.2626C50.36 12.0126 49.4375 12.0801 49.0775 12.5151C48.9124 13.4833 48.7998 14.4598 48.74 15.4401C49.6775 16.9401 52.1375 18.5226 52.8125 16.5801C53.66 14.0976 55.8125 14.8776 53.2925 18.3801C50.87 21.7101 47.5175 20.0001 48.8 21.7851Z" fill="#7D7C3D"/>
<path d="M69.62 17.3751C69.44 16.4376 67.91 16.0701 68.0075 15.2751C68.105 14.4801 65.645 15.9126 65.0075 17.5851C64.37 19.2576 62.0075 17.0601 63.755 14.7351C65.5025 12.4101 71.1575 11.6451 69.8825 10.0551C68.6075 8.46514 65.6075 11.9226 63.8 12.3651C61.9925 12.8076 61.1825 17.0451 58.8725 16.1676C56.5625 15.2901 58.07 18.5226 61.1225 19.1001C64.175 19.6776 64.175 20.8926 66.605 19.7226C69.035 18.5526 69.9425 19.0251 69.62 17.3751Z" fill="#4B4A33"/>
<path opacity="0.3" d="M86.3075 3.50011C81.395 0.297608 69.725 0.297607 69.725 0.297607C69.725 0.297607 58.07 0.297608 53.1575 3.50011C48.245 6.70261 48.5 18.1401 48.3575 21.9126H91.1075C90.995 18.1401 91.25 6.71761 86.3075 3.50011Z" fill="#5A5F2B"/>
<path d="M91.5275 21.9126C89.4725 20.5326 82.7375 13.7976 69.8225 13.7976C56.9075 13.7976 50.18 20.5476 48.1175 21.9126C48.1175 21.9126 47.4275 36.3051 55.1975 29.5626C62.9675 22.8201 69.8225 23.3976 69.8225 23.3976C69.8225 23.3976 76.685 22.8201 84.4475 29.5626C92.21 36.3051 91.5275 21.9126 91.5275 21.9126Z" fill="#555538"/>
<path d="M77.855 77.6826C77.3261 78.4385 76.6951 79.1174 75.98 79.7001C74.69 81.8676 73.4825 84.6051 71.105 84.5001C70.9417 84.5893 70.7585 84.6358 70.5725 84.6351C70.3833 84.641 70.1961 84.5952 70.0309 84.5027C69.8657 84.4102 69.7289 84.2745 69.635 84.1101H69.575C69.425 84.2976 69.26 84.4851 69.1025 84.6651C69.26 85.1376 69.0275 86.1651 67.925 87.6651C65.3075 91.2576 61.925 89.0601 63.92 91.5126C65.915 93.9651 71.33 89.4051 74.06 88.7076C76.79 88.0101 76.8725 80.6751 80.405 81.8676C83.66 82.9026 81.8825 78.8976 77.855 77.6826Z" fill="#4B4A33"/>
<path d="M76.25 85.5951C76.25 85.5951 66.725 87.2826 65.6375 88.0701C65.72 87.8676 77.6375 75.4251 80.3675 71.6751C82.2152 68.9932 82.9666 65.7059 82.4675 62.4876L81.7625 60.0576C83.735 60.8076 85.775 60.9876 86.84 65.0826C87.905 69.1776 89.915 88.7376 87.4475 88.3701C84.755 87.9651 81.8825 84.1251 76.25 85.5951Z" fill="#5A5F2B"/>
<path d="M66.4625 197.607H65.7575V88.0775L66.4625 87.3125V197.607Z" fill="#5A5F2B"/>
<path opacity="0.6" d="M69.785 43.0476C69.785 43.0476 69.89 43.2876 70.0475 43.5951L70.3175 44.1126L70.4525 44.3901C70.494 44.4775 70.529 44.5677 70.5575 44.6601C70.5575 44.7426 70.61 44.8326 70.6325 44.9151V45.1476C70.6362 45.2201 70.6362 45.2927 70.6325 45.3651C70.6103 45.4406 70.5801 45.5135 70.5425 45.5826C70.5425 45.6426 70.475 45.7176 70.4375 45.7776L70.325 45.9276L70.22 46.0851H70.61C70.6982 46.0548 70.7816 46.0118 70.8575 45.9576L70.9925 45.8601C71.0409 45.8182 71.0837 45.7704 71.12 45.7176C71.2107 45.6134 71.2773 45.4905 71.315 45.3576C71.33 45.2859 71.33 45.2118 71.315 45.1401C71.3299 45.0658 71.3299 44.9894 71.315 44.9151C71.3064 44.7696 71.2787 44.6259 71.2325 44.4876C71.1878 44.3558 71.1274 44.2299 71.0525 44.1126C70.9861 44.0041 70.9108 43.9012 70.8275 43.8051C70.6823 43.639 70.5159 43.4927 70.3325 43.3701C70.1726 43.2282 69.9866 43.1186 69.785 43.0476Z" fill="#DB9C94"/>
</svg>
