<svg width="16" height="16" viewBox="0 0 16 16" fill="none" xmlns="http://www.w3.org/2000/svg">
<path d="M6.76448 9.17346C7.69225 10.1146 8.81483 10.8413 10.0534 11.3024L11.7289 9.96902C11.7786 9.93481 11.8375 9.91649 11.8978 9.91649C11.9581 9.91649 12.017 9.93481 12.0667 9.96902L15.1778 11.9735C15.2959 12.0445 15.3959 12.142 15.4699 12.2583C15.5438 12.3746 15.5897 12.5064 15.6039 12.6435C15.6182 12.7806 15.6003 12.9191 15.5518 13.0481C15.5033 13.1771 15.4255 13.293 15.3245 13.3868L13.8667 14.8268C13.6579 15.0331 13.4013 15.1845 13.1198 15.2674C12.8383 15.3504 12.5406 15.3624 12.2534 15.3024C9.38769 14.7105 6.74632 13.3244 4.63115 11.3024C2.56292 9.26024 1.13172 6.66184 0.511149 3.82235C0.449846 3.53952 0.46264 3.24566 0.548294 2.96923C0.633948 2.6928 0.789556 2.44318 1.00004 2.24457L2.51115 0.786795C2.60466 0.6907 2.7187 0.617006 2.84473 0.571229C2.97075 0.525453 3.1055 0.508781 3.23889 0.522461C3.37227 0.536142 3.50083 0.57982 3.61494 0.650226C3.72905 0.720632 3.82576 0.815941 3.89782 0.929017L5.96893 4.00013C6.00465 4.04835 6.02393 4.10678 6.02393 4.1668C6.02393 4.22681 6.00465 4.28524 5.96893 4.33346L4.60448 5.97346C5.07807 7.18721 5.81592 8.28032 6.76448 9.17346Z" fill="white"/>
</svg>
