<svg width="40" height="28" viewBox="0 0 40 28" fill="none" xmlns="http://www.w3.org/2000/svg">
<path d="M39.1667 4.84504C38.9402 4.0371 38.499 3.30562 37.8901 2.72838C37.2639 2.13338 36.4964 1.70777 35.6601 1.49171C32.5301 0.666712 19.9901 0.666712 19.9901 0.666712C14.7623 0.607233 9.53577 0.868836 4.34005 1.45004C3.5037 1.68207 2.73766 2.11719 2.11005 2.71671C1.49339 3.31004 1.04672 4.04171 0.813385 4.84338C0.252874 7.86295 -0.0194612 10.9289 5.20763e-05 14C-0.0199479 17.0684 0.251719 20.1334 0.813385 23.1567C1.04172 23.955 1.48672 24.6834 2.10505 25.2717C2.72339 25.86 3.49339 26.285 4.34005 26.51C7.51172 27.3334 19.9901 27.3334 19.9901 27.3334C25.2245 27.3929 30.4577 27.1313 35.6601 26.55C36.4964 26.334 37.2639 25.9084 37.8901 25.3134C38.5067 24.725 38.9451 23.9934 39.1651 23.1967C39.7402 20.1783 40.0199 17.111 40.0001 14.0384C40.0433 10.9527 39.764 7.87098 39.1667 4.84338V4.84504ZM16.0034 19.7067V8.29504L26.4367 14.0017L16.0034 19.7067Z" fill="white"/>
</svg>
